<?xml version="1.0" standalone="no"?>
<!DOCTYPE svg PUBLIC "-//W3C//DTD SVG 20010904//EN"
 "http://www.w3.org/TR/2001/REC-SVG-20010904/DTD/svg10.dtd">
<svg version="1.0" xmlns="http://www.w3.org/2000/svg"
 width="488.000000pt" height="511.000000pt" viewBox="0 0 488.000000 511.000000"
 preserveAspectRatio="xMidYMid meet">
<g transform="translate(0.000000,511.000000) scale(0.050000,-0.050000)"
fill="#000000" stroke="none">
<path d="M6375 7598 c-355 -40 -433 -130 -1101 -1268 -710 -1211 -793 -1352
-981 -1668 -193 -326 -220 -409 -209 -642 27 -576 625 -942 1137 -698 274 131
173 -14 1213 1748 908 1539 903 1529 879 1782 -44 477 -453 802 -938 746z"/>
<path d="M2938 7554 c-777 -326 -668 -1454 156 -1615 790 -154 1319 824 764
1411 -222 235 -630 325 -920 204z"/>
</g>
</svg>
